<svg width="68" height="68" viewBox="0 0 68 68" fill="none" xmlns="http://www.w3.org/2000/svg">
<rect width="68" height="68" fill="white"/>
<g clip-path="url(#clip0_2006_58)">
<rect x="20" y="16" width="9" height="9" fill="#FF8577"/>
<rect x="20" y="16" width="9" height="9" fill="url(#paint0_linear_2006_58)"/>
<rect x="20" y="25" width="9" height="9" fill="#FF8577"/>
<rect x="20" y="25" width="9" height="9" fill="url(#paint1_linear_2006_58)"/>
<rect x="29" y="34" width="9" height="9" fill="#FF8577"/>
<rect x="29" y="34" width="9" height="9" fill="url(#paint2_linear_2006_58)"/>
<rect x="20" y="43" width="9" height="9" fill="#FF8577"/>
<rect x="20" y="43" width="9" height="9" fill="url(#paint3_linear_2006_58)"/>
<rect x="29" y="16" width="9" height="9" fill="#FF8577"/>
<rect x="29" y="16" width="9" height="9" fill="url(#paint4_linear_2006_58)"/>
<rect x="38" y="25" width="9" height="9" fill="#FF8577"/>
<rect x="38" y="25" width="9" height="9" fill="url(#paint5_linear_2006_58)"/>
<rect x="38" y="34" width="9" height="9" fill="#FF8577"/>
<rect x="38" y="34" width="9" height="9" fill="url(#paint6_linear_2006_58)"/>
</g>
<defs>
<linearGradient id="paint0_linear_2006_58" x1="24.5" y1="16" x2="24.5" y2="25" gradientUnits="userSpaceOnUse">
<stop stop-color="#FF81AC"/>
<stop offset="1" stop-color="#FF3F80"/>
</linearGradient>
<linearGradient id="paint1_linear_2006_58" x1="24.5" y1="25" x2="24.5" y2="34" gradientUnits="userSpaceOnUse">
<stop stop-color="#FF81AC"/>
<stop offset="1" stop-color="#FF3F80"/>
</linearGradient>
<linearGradient id="paint2_linear_2006_58" x1="33.5" y1="34" x2="33.5" y2="43" gradientUnits="userSpaceOnUse">
<stop stop-color="#FF81AC"/>
<stop offset="1" stop-color="#FF3F80"/>
</linearGradient>
<linearGradient id="paint3_linear_2006_58" x1="24.5" y1="43" x2="24.5" y2="52" gradientUnits="userSpaceOnUse">
<stop stop-color="#FF81AC"/>
<stop offset="1" stop-color="#FF3F80"/>
</linearGradient>
<linearGradient id="paint4_linear_2006_58" x1="33.5" y1="16" x2="33.5" y2="25" gradientUnits="userSpaceOnUse">
<stop stop-color="#FF81AC"/>
<stop offset="1" stop-color="#FF3F80"/>
</linearGradient>
<linearGradient id="paint5_linear_2006_58" x1="42.5" y1="25" x2="42.5" y2="34" gradientUnits="userSpaceOnUse">
<stop stop-color="#FF81AC"/>
<stop offset="1" stop-color="#FF3F80"/>
</linearGradient>
<linearGradient id="paint6_linear_2006_58" x1="42.5" y1="34" x2="42.5" y2="43" gradientUnits="userSpaceOnUse">
<stop stop-color="#FF81AC"/>
<stop offset="1" stop-color="#FF3F80"/>
</linearGradient>
<clipPath id="clip0_2006_58">
<rect width="27" height="36" fill="white" transform="translate(20 16)"/>
</clipPath>
</defs>
</svg>
